<?xml version="1.0" encoding="utf-8"?>
<!-- Generator: Adobe Illustrator 15.0.0, SVG Export Plug-In . SVG Version: 6.00 Build 0)  -->
<!DOCTYPE svg PUBLIC "-//W3C//DTD SVG 1.1//EN" "http://www.w3.org/Graphics/SVG/1.1/DTD/svg11.dtd">
<svg version="1.1" id="Layer_1" xmlns="http://www.w3.org/2000/svg" xmlns:xlink="http://www.w3.org/1999/xlink" x="0px" y="0px"
	 width="24px" height="26px" viewBox="0 0 24 26" enable-background="new 0 0 24 26" xml:space="preserve">
<g>
	<path fill="#FFFFFF" d="M18.301,11.762l-1.439-0.147c-0.105-0.377-0.257-0.735-0.443-1.073l-0.002-0.001l0.915-1.122
		c0.252-0.309,0.229-0.759-0.054-1.041l-0.656-0.656C16.34,7.439,15.89,7.417,15.58,7.669l-1.122,0.914
		c-0.341-0.192-0.701-0.338-1.072-0.445l-0.001,0.001l-0.146-1.44C13.197,6.302,12.863,6,12.464,6h-0.928
		c-0.399,0-0.733,0.302-0.774,0.699l-0.146,1.44C10.238,8.244,9.88,8.395,9.543,8.582L9.542,8.583L8.42,7.669
		c-0.31-0.252-0.759-0.23-1.042,0.053L6.722,8.378C6.44,8.661,6.417,9.111,6.67,9.419l0.914,1.122
		c-0.192,0.341-0.338,0.702-0.445,1.073v0.001l-1.439,0.147C5.302,11.803,5,12.136,5,12.536v0.929c0,0.398,0.302,0.733,0.699,0.774
		l1.439,0.146c0.105,0.378,0.257,0.735,0.443,1.073l0.002,0.001L6.67,16.58c-0.253,0.309-0.229,0.76,0.052,1.041l0.657,0.656
		C7.661,18.56,8.11,18.582,8.42,18.33l1.122-0.914c0.341,0.192,0.701,0.338,1.072,0.445h0.001l0.146,1.439
		C10.803,19.697,11.137,20,11.536,20h0.928c0.399,0,0.733-0.303,0.774-0.699l0.146-1.439c0.377-0.105,0.734-0.258,1.073-0.443
		v-0.002l1.122,0.914c0.31,0.252,0.76,0.229,1.041-0.053l0.656-0.656c0.282-0.281,0.306-0.732,0.054-1.041l-0.915-1.122
		c0.193-0.341,0.339-0.7,0.445-1.073v-0.001l1.439-0.146C18.698,14.197,19,13.863,19,13.464v-0.929
		C19,12.136,18.698,11.803,18.301,11.762z M12,15.333c-1.289,0-2.333-1.045-2.333-2.333c0-1.29,1.044-2.334,2.333-2.334
		S14.333,11.71,14.333,13C14.333,14.288,13.289,15.333,12,15.333z"/>
</g>
</svg>
