<?xml version="1.0" encoding="iso-8859-1"?>
<!-- Generator: Adobe Illustrator 19.0.0, SVG Export Plug-In . SVG Version: 6.00 Build 0)  -->
<svg version="1.1" id="Capa_1" xmlns="http://www.w3.org/2000/svg" xmlns:xlink="http://www.w3.org/1999/xlink" x="0px" y="0px"
	 viewBox="0 0 489.173 489.173" style="enable-background:new 0 0 489.173 489.173;" xml:space="preserve">
<g>
	<g>
		<path d="M161.107,404.286l243.1-243.1c4.7-4.7,12-6.6,18.2-4.3c18.2,6.6,39.6,2.3,53.6-13.2c17.1-18.2,17.5-47.4,1.2-66.4
			c-8.9-10.5-21.4-16.3-33.8-17.5c-7.8-0.8-14-6.6-14.4-14.4c-1.2-12.4-7-24.8-17.5-33.8c-19-15.9-47.8-15.5-66,1.6
			c-15.5,14-19.8,35.3-13.2,53.6c2.3,6.2,0.4,13.6-4.3,18.2l-243,243.2c-4.7,4.7-12,6.6-18.2,4.3c-18.2-6.6-39.6-2.3-53.6,13.2
			c-17.1,18.2-17.5,46.9-1.5,66c8.9,10.5,21.4,16.3,33.8,17.5c7.8,0.8,14,6.6,14.4,14.4c1.2,12.4,7,24.8,17.5,33.8
			c19,16.3,47.8,15.5,66.4-1.2c15.1-14,19.8-35.3,13.2-53.6C154.507,416.286,156.507,408.886,161.107,404.286z"/>
	</g>
</g>
<g>
</g>
<g>
</g>
<g>
</g>
<g>
</g>
<g>
</g>
<g>
</g>
<g>
</g>
<g>
</g>
<g>
</g>
<g>
</g>
<g>
</g>
<g>
</g>
<g>
</g>
<g>
</g>
<g>
</g>
</svg>
