<?xml version="1.0" encoding="iso-8859-1"?>
<!-- Generator: Adobe Illustrator 19.0.0, SVG Export Plug-In . SVG Version: 6.00 Build 0)  -->
<svg version="1.1" id="Capa_1" xmlns="http://www.w3.org/2000/svg" xmlns:xlink="http://www.w3.org/1999/xlink" x="0px" y="0px"
	 viewBox="0 0 512 512" style="enable-background:new 0 0 512 512;" xml:space="preserve">
<g>
	<g>
		<g>
			<path d="M394.667,0h-64c-25.048,0-45.444,35.596-51.137,46.526c-7.634-2.434-15.497-3.857-23.53-3.857s-15.896,1.423-23.53,3.857
				C226.777,35.596,206.382,0,181.333,0h-64C60.563,0,42.667,146.467,42.667,160.01c0,4.313,2.604,8.209,6.583,9.855
				c1.313,0.552,2.708,0.813,4.083,0.813c2.771,0,5.5-1.083,7.542-3.125l77.466-77.471c8.189,8.58,17.466,16.979,26.318,22.124
				c-3.432,7.373-6.333,15.127-8.673,23.202l-12.548-6.274c-5.271-2.594-11.646-0.51-14.313,4.771
				c-2.625,5.271-0.5,11.678,4.771,14.313l17.35,8.676c-1.198,7.993-1.913,16.151-1.913,24.451c0,8.67,0.924,16.651,2.391,24.212
				l-17.828,8.915c-5.271,2.636-7.396,9.042-4.771,14.313c1.875,3.74,5.646,5.896,9.542,5.896c1.604,0,3.229-0.365,4.771-1.125
				l14.818-7.409c0.6,1.344,1.353,2.556,2.014,3.849l-54.374,54.386C92.646,297.633,85.333,315.248,85.333,334
				c0,8.813,2.193,17.384,5.415,25.563c-1.557,1.303-3.276,2.361-4.728,3.814c-29.313,29.304-29.313,77.005,0,106.309
				c14.333,14.324,39.771,28.606,64.813,36.356c12.854,3.99,24.646,5.959,35.063,5.959c15.292,0,27.646-4.25,36.063-12.678
				c3.971-3.97,6.853-8.737,8.87-14.048c8.155,3.453,16.652,5.422,25.172,5.422c8.516,0,17.01-1.969,25.172-5.424
				c2.017,5.31,4.898,10.079,8.87,14.049C298.458,507.75,310.813,512,326.104,512c10.417,0,22.208-1.969,35.063-5.959
				c25.042-7.75,50.479-22.033,64.813-36.356c29.313-29.304,29.313-77.005,0-106.309c-1.452-1.453-3.171-2.509-4.728-3.814
				c3.219-8.178,5.415-16.747,5.415-25.563c0-18.751-7.313-36.367-20.563-49.618l-54.374-54.386
				c0.661-1.293,1.415-2.507,2.016-3.849l14.816,7.409c1.542,0.76,3.167,1.125,4.771,1.125c3.896,0,7.667-2.156,9.542-5.896
				c2.625-5.271,0.5-11.678-4.771-14.313l-17.828-8.915c1.466-7.562,2.391-15.543,2.391-24.212c0-8.3-0.715-16.458-1.913-24.451
				l17.35-8.676c5.271-2.636,7.396-9.042,4.771-14.313c-2.646-5.282-9.042-7.386-14.313-4.771l-12.548,6.274
				c-2.34-8.075-5.241-15.829-8.673-23.202c8.852-5.145,18.129-13.544,26.318-22.124l77.466,77.471
				c2.042,2.042,4.771,3.125,7.542,3.125c1.375,0,2.771-0.26,4.083-0.813c3.979-1.646,6.583-5.542,6.583-9.855
				C469.333,146.467,451.438,0,394.667,0z M256,64c35.615,0,68.615,35.59,80.557,81.128l-10.661,5.331
				c-5.271,2.635-7.396,9.042-4.771,14.313c1.875,3.74,5.646,5.896,9.542,5.896c1.604,0,3.229-0.365,4.771-1.125l5.077-2.538
				c0.484,4.734,0.819,9.504,0.819,14.329c0,5.061-0.49,9.672-1.057,14.211l-4.839-2.419c-5.271-2.594-11.646-0.51-14.313,4.771
				c-2.625,5.271-0.5,11.677,4.771,14.313l8.91,4.454C323.613,242.941,297.684,256,256,256s-67.613-13.059-78.806-39.337l8.91-4.454
				c5.271-2.635,7.396-9.042,4.771-14.313c-2.646-5.281-9.042-7.385-14.313-4.771l-4.839,2.419
				c-0.568-4.539-1.057-9.15-1.057-14.211c0-4.826,0.335-9.595,0.819-14.329l5.077,2.538c1.542,0.76,3.167,1.125,4.771,1.125
				c3.896,0,7.667-2.156,9.542-5.896c2.625-5.271,0.5-11.677-4.771-14.313l-10.661-5.331C187.385,99.59,220.385,64,256,64z
				 M153.535,74.882l14.007-14.007c4.167-4.167,4.167-10.917,0-15.083c-4.167-4.167-10.917-4.167-15.083,0L67.479,130.76
				c7.667-42.792,27.146-109.427,49.854-109.427h64c9.035,0,23.585,19.014,31.69,34.129c-14.632,8.914-27.715,22.01-38.143,38.066
				C169.983,90.512,162.445,84.16,153.535,74.882z M206.875,484.208c-8.063,8.052-26.667,8.573-49.729,1.427
				c-21.313-6.604-44.354-19.375-56.042-31.063c-10.167-10.167-15.771-23.688-15.771-38.063c0-14.385,5.604-27.906,15.771-38.073
				c10.167-10.167,23.688-15.771,38.063-15.771s27.896,5.604,38.063,15.771C200.917,402.115,225.375,465.708,206.875,484.208z
				 M410.896,378.438c10.167,10.167,15.771,23.688,15.771,38.073c0,14.375-5.604,27.896-15.771,38.063
				c-11.688,11.688-34.729,24.458-56.042,31.063c-23.083,7.135-41.667,6.625-49.729-1.427c-18.5-18.5,5.958-82.094,29.646-105.771
				c10.167-10.167,23.688-15.771,38.063-15.771S400.729,368.271,410.896,378.438z M391.021,299.448
				c9.229,9.219,14.313,21.49,14.313,34.531c0,4.845-0.944,9.594-2.357,14.212c-15.172-6.352-32.21-7.546-48.199-3.798
				c-5.667-14.04-14.672-28.413-26.777-42.122c-3.896-4.417-10.667-4.844-15.063-0.938c-4.417,3.906-4.833,10.646-0.938,15.063
				c10.482,11.855,18.184,24.047,22.93,35.757c-5.465,3.094-10.691,6.647-15.242,11.202c-20.066,20.073-41.868,64.448-42.042,99.569
				c-13.951,7.699-29.341,7.702-43.293,0.01c-0.169-35.122-21.973-79.504-42.04-99.579c-4.551-4.555-9.775-8.108-15.24-11.202
				c4.76-11.78,12.448-23.97,22.906-35.736c3.917-4.406,3.5-11.146-0.896-15.063c-4.438-3.917-11.167-3.542-15.063,0.896
				c-12.281,13.846-21.154,27.974-26.813,42.138c-15.986-3.742-33.02-2.544-48.188,3.805c-1.409-4.619-2.354-9.367-2.354-14.214
				c0-13.042,5.083-25.313,14.313-34.531l51.691-51.701c18.004,19.169,45.906,29.586,83.329,29.586s65.326-10.417,83.329-29.586
				L391.021,299.448z M359.542,45.792c-4.167-4.167-10.917-4.167-15.083,0c-4.167,4.167-4.167,10.917,0,15.083l14.008,14.008
				c-8.911,9.279-16.449,15.632-21.346,18.646c-10.428-16.056-23.512-29.152-38.143-38.066c8.105-15.115,22.655-34.129,31.69-34.129
				h64c22.708,0,42.188,66.635,49.854,109.427L359.542,45.792z"/>
			<path d="M116.646,393.969c-6.438,6.438-9.979,14.99-9.979,24.083s3.542,17.646,9.979,24.063c9.125,9.135,27.625,19.573,46,25.979
				c2.396,0.833,4.854,1.24,7.292,1.24c5.729,0,11.333-2.271,15.583-6.542c6.042-6.031,8.042-14.74,5.229-22.729
				c-5.229-14.938-14.792-34.896-25.958-46.094C151.938,381.135,129.542,381.094,116.646,393.969z M169.667,447.948
				c-15.125-5.281-31.083-14.073-37.938-20.927c-2.417-2.396-3.729-5.583-3.729-8.969c0-3.396,1.333-6.594,3.729-9
				c2.438-2.438,5.542-3.719,8.979-3.719c3.396,0,6.604,1.323,9,3.708c7,7.021,15.396,22.323,20.917,38.063L169.667,447.948z"/>
			<path d="M347.208,393.979c-11.167,11.188-20.729,31.146-25.958,46.083c-2.813,7.99-0.813,16.698,5.229,22.729
				c4.25,4.271,9.854,6.542,15.583,6.542c2.438,0,4.896-0.406,7.271-1.24c18.396-6.406,36.896-16.844,46.021-25.969
				c6.438-6.427,9.979-14.979,9.979-24.073s-3.542-17.646-9.979-24.083C382.458,381.094,360.063,381.125,347.208,393.979z
				 M380.271,409.052c2.396,2.406,3.729,5.604,3.729,9c0,3.385-1.313,6.573-3.729,8.979c-6.854,6.844-22.813,15.635-38.708,20.698
				c-0.292-0.313-0.229-0.469-0.188-0.615v-0.01c5.521-15.74,13.917-31.042,20.917-38.052c2.396-2.396,5.604-3.719,9-3.719
				C374.729,405.333,377.833,406.615,380.271,409.052z"/>
			<circle cx="224" cy="138.667" r="10.667"/>
			<circle cx="288" cy="138.667" r="10.667"/>
			<path d="M246.458,207.438c1.813,3.615,5.5,5.896,9.542,5.896s7.729-2.281,9.542-5.896l10.667-21.333
				c1.646-3.302,1.479-7.229-0.458-10.375c-1.958-3.146-5.396-5.063-9.083-5.063h-21.333c-3.688,0-7.125,1.917-9.083,5.063
				c-1.938,3.146-2.104,7.073-0.458,10.375L246.458,207.438z"/>
		</g>
	</g>
</g>
<g>
</g>
<g>
</g>
<g>
</g>
<g>
</g>
<g>
</g>
<g>
</g>
<g>
</g>
<g>
</g>
<g>
</g>
<g>
</g>
<g>
</g>
<g>
</g>
<g>
</g>
<g>
</g>
<g>
</g>
</svg>
