<?xml version="1.0" encoding="iso-8859-1"?>
<!-- Generator: Adobe Illustrator 19.0.0, SVG Export Plug-In . SVG Version: 6.00 Build 0)  -->
<svg version="1.1" id="Capa_1" xmlns="http://www.w3.org/2000/svg" xmlns:xlink="http://www.w3.org/1999/xlink" x="0px" y="0px"
	 viewBox="0 0 512 512" style="enable-background:new 0 0 512 512;" xml:space="preserve">
<g>
	<g>
		<path d="M512,16V0h-30v16c0,37.738-27.652,69.126-63.756,75H93.756C57.652,85.126,30,53.738,30,16V0H0v16
			c0,33.8,15.902,63.956,40.618,83.379C16.517,111.868,0,137.033,0,166v46h46c18.932,0,36.235-7.066,49.447-18.679l11.204,219.043
			C109.509,468.235,155.571,512,211.514,512h88.972c55.943,0,102.005-43.765,104.863-99.636l11.204-219.043
			C429.765,204.934,447.068,212,466,212h46v-46c0-28.967-16.517-54.132-40.618-66.621C496.098,79.956,512,49.8,512,16z M91,137
			c0,24.813-20.187,45-45,45H30v-16c0-24.813,20.187-45,45-45h16V137z M336,206c11.046,0,20,8.954,20,20s-8.954,20-20,20
			c-11.046,0-20-8.954-20-20S324.954,206,336,206z M121.787,121H183c23.748,0,43,19.252,43,43v44.5
			c0,14.07,11.513,25.456,25.583,25.5C265.628,234.045,277,245.444,277,259.5v64.633c-6.938-0.75-13.947-1.133-21-1.133
			c-44.589,0-87.399,15.252-121.699,42.654L121.787,121z M375.389,410.831C373.347,450.739,340.446,482,300.486,482h-88.972
			c-39.96,0-72.861-31.261-74.902-71.169l-0.325-6.362C167.401,371.677,210.613,353,256,353c45.386,0,88.598,18.676,119.714,51.469
			L375.389,410.831z M482,166v16h-16c-24.813,0-45-20.187-45-45v-16h16C461.813,121,482,141.187,482,166z"/>
	</g>
</g>
<g>
	<g>
		<circle cx="206" cy="432" r="20"/>
	</g>
</g>
<g>
	<g>
		<circle cx="306" cy="432" r="20"/>
	</g>
</g>
<g>
	<g>
		<circle cx="176" cy="226" r="20"/>
	</g>
</g>
<g>
</g>
<g>
</g>
<g>
</g>
<g>
</g>
<g>
</g>
<g>
</g>
<g>
</g>
<g>
</g>
<g>
</g>
<g>
</g>
<g>
</g>
<g>
</g>
<g>
</g>
<g>
</g>
<g>
</g>
</svg>
