<?xml version="1.0" encoding="iso-8859-1"?>
<!-- Generator: Adobe Illustrator 18.0.0, SVG Export Plug-In . SVG Version: 6.00 Build 0)  -->
<!DOCTYPE svg PUBLIC "-//W3C//DTD SVG 1.1//EN" "http://www.w3.org/Graphics/SVG/1.1/DTD/svg11.dtd">
<svg version="1.1" id="Capa_1" xmlns="http://www.w3.org/2000/svg" xmlns:xlink="http://www.w3.org/1999/xlink" x="0px" y="0px"
	 viewBox="0 0 303.124 303.124" style="enable-background:new 0 0 303.124 303.124;" xml:space="preserve">
<g>
	<path d="M169.104,208.748c-35.354,12.229-73.75,3.399-100.195-23.041c-26.441-26.441-35.27-64.831-23.04-100.189
		c0.812-2.349-0.433-4.911-2.782-5.724c-2.349-0.813-4.911,0.434-5.724,2.782c-6.397,18.495-7.546,38.393-3.324,57.543
		c4.338,19.676,14.195,37.64,28.506,51.951c14.314,14.311,32.279,24.168,51.954,28.506c7.561,1.667,15.238,2.497,22.9,2.497
		c11.744,0,23.453-1.949,34.647-5.82c2.349-0.813,3.595-3.375,2.782-5.724C174.016,209.182,171.457,207.936,169.104,208.748z"/>
	<path d="M224.255,177.084c-7.031-7.032-16.632-7.828-26.349-2.187c-33.605,18.466-76.018,12.416-103.166-14.727
		C67.599,133.022,61.546,90.61,80.013,57.006c1.772-3.051,2.913-6.072,3.429-9.015l22.107-24.017
		c2.243-2.437,2.087-6.231-0.349-8.476L90.107,1.589c-1.17-1.079-2.716-1.652-4.312-1.583c-1.59,0.065-3.089,0.76-4.168,1.93
		L58.505,27.041c-5.506,1.485-13.271,5.2-21.932,14.213c-48.777,48.826-48.766,128.234,0.039,177.044
		c24.413,24.41,56.475,36.614,88.542,36.613c32.047-0.001,64.099-12.194,88.504-36.576c9.696-9.318,15.087-19.497,15.183-28.669
		C228.893,184.562,227.265,180.093,224.255,177.084z M86.388,14.48l6.271,5.779L77.118,37.142l-6.674-5.35L86.388,14.48z
		 M205.304,209.72c-0.03,0.029-0.06,0.058-0.09,0.087c-22.073,22.075-51.064,33.111-80.061,33.109
		c-28.99-0.001-57.986-11.036-80.057-33.104C0.957,165.667,0.96,93.839,45.103,49.696c0.029-0.029,0.059-0.059,0.087-0.089
		c5.042-5.256,10.31-8.923,15.106-10.568l10.856,8.701c-0.358,1.039-0.872,2.136-1.543,3.285c-0.025,0.043-0.05,0.087-0.074,0.13
		C59.42,69.527,55.398,91.151,58.21,112.043c2.906,21.591,12.604,41.167,28.046,56.612c15.445,15.441,35.021,25.14,56.612,28.045
		c20.888,2.814,42.516-1.21,60.888-11.326c0.044-0.024,0.088-0.049,0.131-0.074c6.501-3.793,9.766-1.85,11.884,0.268
		c0.508,0.508,1.093,1.853,1.07,3.973C216.812,192.308,215.63,199.813,205.304,209.72z"/>
</g>
<g>
</g>
<g>
</g>
<g>
</g>
<g>
</g>
<g>
</g>
<g>
</g>
<g>
</g>
<g>
</g>
<g>
</g>
<g>
</g>
<g>
</g>
<g>
</g>
<g>
</g>
<g>
</g>
<g>
</g>
</svg>
