<?xml version="1.0" encoding="iso-8859-1"?>
<!-- Generator: Adobe Illustrator 16.0.0, SVG Export Plug-In . SVG Version: 6.00 Build 0)  -->
<!DOCTYPE svg PUBLIC "-//W3C//DTD SVG 1.1//EN" "http://www.w3.org/Graphics/SVG/1.1/DTD/svg11.dtd">
<svg version="1.1" id="Capa_1" xmlns="http://www.w3.org/2000/svg" xmlns:xlink="http://www.w3.org/1999/xlink" x="0px" y="0px"
	 width="45.809px" height="45.809px" viewBox="0 0 45.809 45.809" style="enable-background:new 0 0 45.809 45.809;"
	 xml:space="preserve">
<g>
	<path d="M27.574,27.971c10.073,1.488,15.464-6.11,16.846-8.406c0.059-0.097,0.053-0.219-0.014-0.311
		c-0.066-0.091-0.182-0.134-0.292-0.108c-1.394,0.325-3.012-0.021-3.012-0.021c4.088-3.139,4.659-9.146,4.706-11.747
		c0.004-0.245-0.122-0.474-0.332-0.601c-0.209-0.126-0.471-0.131-0.686-0.014c-3.603,1.975-11.626,3.868-21.868,7.975
		c-5.001,2.006-7.154,5.347-8.054,8.205c-1.4,0.19-2.811,0.143-3.938-0.518c-0.8-0.469-1.653-1.173-2.685-1.373
		c-3.268-0.634-5.627,0.728-8.14,4.218c-0.111,0.156-0.137,0.359-0.066,0.537c0.071,0.179,0.227,0.309,0.416,0.346
		c7.962,1.558,8.744,5.398,11.409,7.541c8.93,7.175,22.651,6.558,31.319,2.147c0.22-0.112,0.34-0.355,0.293-0.6
		c-0.046-0.243-0.248-0.426-0.494-0.449C37.149,34.249,31.748,32.939,27.574,27.971z M5.939,23.725
		c-0.037,0.383-0.375,0.662-0.757,0.625C4.8,24.315,4.52,23.975,4.556,23.593c0.036-0.381,0.375-0.662,0.757-0.626
		C5.695,23.004,5.976,23.343,5.939,23.725z"/>
</g>
<g>
</g>
<g>
</g>
<g>
</g>
<g>
</g>
<g>
</g>
<g>
</g>
<g>
</g>
<g>
</g>
<g>
</g>
<g>
</g>
<g>
</g>
<g>
</g>
<g>
</g>
<g>
</g>
<g>
</g>
</svg>
