<?xml version="1.0" encoding="iso-8859-1"?>
<!-- Generator: Adobe Illustrator 19.0.0, SVG Export Plug-In . SVG Version: 6.00 Build 0)  -->
<svg version="1.1" id="Layer_1" xmlns="http://www.w3.org/2000/svg" xmlns:xlink="http://www.w3.org/1999/xlink" x="0px" y="0px"
	 viewBox="0 0 512 512" style="enable-background:new 0 0 512 512;" xml:space="preserve">
<g>
	<g>
		<path d="M497.536,159.861l0.235-0.235C506.816,151.52,512,140.021,512,128.011c0-23.531-19.136-42.667-42.667-42.667h-29.824
			c-2.325-2.368-6.507-8.491-9.963-13.525C412.373,46.731,380.416,0.011,320,0.011c-83.52,0-128,68.139-128,117.333
			c0,33.835,22.784,71.509,35.989,90.475c-10.176,2.645-26.069,5.525-46.656,5.525c-39.957,0-69.099-4.139-108.651-59.541
			c-1.643-2.283-4.16-3.883-6.976-4.331s-5.675,0.235-7.979,1.899C23.061,176.565,0,207.627,0,277.323
			c0,70.571,27.029,234.667,277.333,234.667c213.205,0,224-142.165,224-170.667c0-52.245-48.277-112.896-68.757-136.299
			C450.581,193.931,485.205,171.957,497.536,159.861z M341.333,85.344c11.755,0,21.333,9.579,21.333,21.333
			c0,11.755-9.579,21.333-21.333,21.333c-11.755,0-21.333-9.579-21.333-21.333C320,94.923,329.579,85.344,341.333,85.344z
			 M288,405.344c-66.219,0-118.293-35.648-154.795-105.984c-0.789-1.493-1.408-2.731-1.899-3.648
			c-1.088-1.045-1.963-2.304-2.539-3.733c-1.493-3.115-1.131-6.741,0.853-9.941c1.365-2.219,3.563-3.627,6.016-4.267
			c2.389-0.747,5.056-0.597,7.488,0.469c5.333,1.707,32.704,9.771,70.229,9.771c24.683,0,44.331-3.435,61.675-6.485
			c12.843-2.24,23.936-4.181,34.325-4.181c29.397,0,53.333,23.936,53.333,53.333C362.667,371.851,329.173,405.344,288,405.344z"/>
	</g>
</g>
<g>
</g>
<g>
</g>
<g>
</g>
<g>
</g>
<g>
</g>
<g>
</g>
<g>
</g>
<g>
</g>
<g>
</g>
<g>
</g>
<g>
</g>
<g>
</g>
<g>
</g>
<g>
</g>
<g>
</g>
</svg>
