<?xml version="1.0" encoding="iso-8859-1"?>
<!-- Generator: Adobe Illustrator 18.0.0, SVG Export Plug-In . SVG Version: 6.00 Build 0)  -->
<!DOCTYPE svg PUBLIC "-//W3C//DTD SVG 1.1//EN" "http://www.w3.org/Graphics/SVG/1.1/DTD/svg11.dtd">
<svg version="1.1" id="Capa_1" xmlns="http://www.w3.org/2000/svg" xmlns:xlink="http://www.w3.org/1999/xlink" x="0px" y="0px"
	 viewBox="0 0 491.043 491.043" style="enable-background:new 0 0 491.043 491.043;" xml:space="preserve">
<g>
	<path d="M99.869,419.639c-6.705,0-13.082-1.203-19.281-2.904v41.754c0,6.36,5.157,11.518,11.518,11.518h53.744
		c6.359,0,11.518-5.157,11.518-11.518v-29.377c-10.436-3.032-20.164-8.19-28.313-15.616
		C119.871,417.521,109.975,419.639,99.869,419.639z"/>
	<path d="M262.689,432.15c-2.23,0-4.403-0.312-6.602-0.497v26.836c0,6.36,5.157,11.518,11.518,11.518h53.753
		c6.36,0,11.516-5.157,11.516-11.518v-67.113C318.254,416.174,292.228,432.15,262.689,432.15z"/>
	<path d="M358.322,295.757c-52.508,0-88.936-73.025-95.057-130.105c-36.443-4.821-62.301-25.905-62.301-52.791
		c0-3.913,0.626-7.674,1.668-11.307c-7.988,4.507-14.693,11.276-19.265,19.584c-7.7-5.565-17.004-8.83-27.014-8.83
		c-23.29,0-42.699,17.605-47.174,40.993c-35.001,4.307-62.768,32.955-67.98,69.832C17.925,226.758,0,247.891,0,273.677
		c0,28.311,21.559,51.272,48.162,51.272c0.77,0,1.491-0.2,2.253-0.24c-1.323,4.869-2.253,9.921-2.253,15.238
		c0,30.397,23.146,55.052,51.707,55.052c13.377,0,25.439-5.55,34.623-14.42c8.157,15.959,23.852,26.932,42.13,26.932
		c17.085,0,31.994-9.529,40.544-23.796c10.65,14.389,26.98,23.796,45.523,23.796c29.065,0,52.941-22.777,57.256-52.437
		c3.538,0.578,7.059,1.148,10.732,1.148c39.26,0,71.068-33.886,71.068-75.681c0-0.946-0.152-1.844-0.192-2.782
		C388.912,288.876,374.38,295.757,358.322,295.757z"/>
	<path d="M437.3,83.668c-6.738,0-13.154,0.708-19.098,1.942c2.343-4.312,3.673-9.253,3.673-14.505
		c0-16.807-13.625-30.432-30.432-30.432c-2.685,0-5.287,0.351-7.767,1.004c-2.88-11.816-13.832-20.64-27.055-20.64
		c-12.904,0-23.656,8.427-26.855,19.821c-1.094-0.12-2.204-0.185-3.33-0.185c-16.807,0-30.432,13.625-30.432,30.432
		c0,5.363,1.393,10.399,3.827,14.775c-6.322-1.416-13.222-2.211-20.485-2.211c-29.683,0-53.743,13.073-53.743,29.193
		c0,16.13,24.061,29.195,53.743,29.195c2.84,0,5.559-0.225,8.276-0.458c-0.184,2.583-0.632,5.069-0.632,7.708
		c0,47.897,31.937,121.812,71.331,121.812c39.389,0,71.325-73.915,71.325-121.812c0-2.64-0.448-5.125-0.641-7.708
		c2.719,0.233,5.445,0.458,8.293,0.458c29.683,0,53.743-13.065,53.743-29.195C491.043,96.741,466.982,83.668,437.3,83.668z
		 M331.992,161.239c-5.301,0-9.593-4.29-9.593-9.591c0-5.302,4.292-9.593,9.593-9.593c5.302,0,9.593,4.29,9.593,9.593
		C341.585,156.949,337.294,161.239,331.992,161.239z M384.638,161.239c-5.294,0-9.584-4.29-9.584-9.591
		c0-5.302,4.29-9.593,9.584-9.593c5.309,0,9.601,4.29,9.601,9.593C394.238,156.949,389.946,161.239,384.638,161.239z"/>
</g>
<g>
</g>
<g>
</g>
<g>
</g>
<g>
</g>
<g>
</g>
<g>
</g>
<g>
</g>
<g>
</g>
<g>
</g>
<g>
</g>
<g>
</g>
<g>
</g>
<g>
</g>
<g>
</g>
<g>
</g>
</svg>
