<?xml version="1.0" encoding="iso-8859-1"?>
<!-- Generator: Adobe Illustrator 19.0.0, SVG Export Plug-In . SVG Version: 6.00 Build 0)  -->
<svg version="1.1" id="Capa_1" xmlns="http://www.w3.org/2000/svg" xmlns:xlink="http://www.w3.org/1999/xlink" x="0px" y="0px"
	 viewBox="0 0 512 512" style="enable-background:new 0 0 512 512;" xml:space="preserve">
<g>
	<g>
		<path d="M474.034,256.005c23.13-18.336,37.966-46.68,37.966-78.489c0-4.229-0.265-8.396-0.774-12.487
			c-4.111-0.563-8.307-0.861-12.573-0.861c-45.349,0-83.016,32.874-90.483,76.09c0-0.002,0.001-0.005,0.001-0.007
			c-17.361-22.23-61.985-56.459-114.61-81.395h0.001l37.612-57.387c-82.203-26.55-129.107,28.129-129.107,28.129l0.06,0.019
			c-9.845-1.441-19.608-2.232-29.179-2.232c-12.023,0-23.495,1.565-34.394,4.344c25.981,35.702,40.111,79.144,40.111,124.271
			s-14.129,88.568-40.111,124.27c10.899,2.779,22.37,4.344,34.394,4.344c9.571,0,19.335-0.791,29.18-2.232l-0.061,0.02
			c0,0,46.904,54.679,129.107,28.129l-37.612-57.387c52.624-24.936,97.248-59.165,114.609-81.395c0-0.002-0.001-0.004-0.001-0.006
			c7.467,43.216,45.134,76.088,90.483,76.088c4.266,0,8.462-0.298,12.574-0.861c0.508-4.089,0.773-8.253,0.773-12.479
			C512,302.685,497.164,274.342,474.034,256.005z"/>
	</g>
</g>
<g>
	<g>
		<path d="M109.135,142.631C39.379,176.686,0,256.002,0,256.002s39.379,79.316,109.135,113.371
			c25.548-31.775,39.531-71.717,39.531-113.371C148.666,214.347,134.683,174.405,109.135,142.631z M91.421,243.542
			c-8.284,0-15-6.716-15-15s6.716-15,15-15s15,6.716,15,15C106.421,236.827,99.706,243.542,91.421,243.542z"/>
	</g>
</g>
<g>
</g>
<g>
</g>
<g>
</g>
<g>
</g>
<g>
</g>
<g>
</g>
<g>
</g>
<g>
</g>
<g>
</g>
<g>
</g>
<g>
</g>
<g>
</g>
<g>
</g>
<g>
</g>
<g>
</g>
</svg>
