<?xml version="1.0" encoding="iso-8859-1"?>
<!-- Generator: Adobe Illustrator 19.0.0, SVG Export Plug-In . SVG Version: 6.00 Build 0)  -->
<svg version="1.1" id="Capa_1" xmlns="http://www.w3.org/2000/svg" xmlns:xlink="http://www.w3.org/1999/xlink" x="0px" y="0px"
	 viewBox="0 0 512 512" style="enable-background:new 0 0 512 512;" xml:space="preserve">
<g>
	<g>
		<path d="M376.815,225.555c-4.976-51.959-64.521-78.989-106.851-49.133c4.461-34.169,36.246-52.693,69.237-62.456l-8.515-28.777
			c-49.922,14.772-47.285,29.381-71.804,29.874c31.558-36.271,29.436-73.279,14.844-115.009
			c-22.106-0.488-44.077,2.075-62.603,20.277c-11.044-11.394-28.861-23.168-53.74-19.707c-6.666,0.937-4.597-0.315-9.233,5.002
			c-16.516,18.937-16.416,40.305-12.935,55.79c-24.82,5.419-39.096,21.805-51.249,41.315c24.815,32.241,51.591,54.325,96.855,51.269
			c17.332-1.19,34.765-6.753,46.327-12.995c5.282-2.722,3.343,1.23,21.683,3.498c-6.811,13.532-9.315,30.219-8.847,30.524
			c-42.449-27.65-99.922-0.388-104.798,50.529c-71.319,15.719-70.736,118.191,0.77,133.109c-6.57,36.047,16.74,70.812,52.289,78.659
			C184.356,477.529,216.084,512,256.001,512c39.917,0,71.644-34.471,67.755-74.677c35.497-7.835,58.871-42.556,52.289-78.659
			C447.533,343.751,448.148,241.277,376.815,225.555z M346.584,225.755c-15.026,3.511-28.15,12.024-37.514,23.689
			c-9.363-11.664-22.498-20.177-37.524-23.689C278.62,183.666,339.513,183.678,346.584,225.755z M121.892,101.67
			c17.744-16.743,31.08-11.527,62.783-7.223c-12.088-20.793-29.524-43.165-17.316-64.344c24.287,1.376,33.476,28.079,44.316,49.768
			c13.062-27.468,16.379-42.825,40.425-48.638C268.328,105.241,174.727,155.53,121.892,101.67z M291.784,305.014
			c-14.295,3.751-26.78,12.054-35.783,23.258c-9.003-11.204-21.488-19.507-35.783-23.258c-7.495-20.733,4.095-43.275,24.939-49.478
			C274.717,246.698,302.483,275.419,291.784,305.014z M240.455,225.755c-15.026,3.511-28.16,12.024-37.524,23.689
			c-9.363-11.664-22.488-20.177-37.514-23.689C172.493,183.658,233.386,183.684,240.455,225.755z M148.472,330.053
			c-42.751-1.555-50.676-62.241-9.443-74.517c29.648-8.816,57.296,19.937,46.617,49.478
			C170.6,308.955,157.565,317.948,148.472,330.053z M197.84,408.572c-23.778-3.188-39.019-27.734-30.681-50.708
			c15.921-43.698,81.572-25.419,73.217,19.817C222.429,381.902,207.193,393.256,197.84,408.572z M256.001,481.988
			c-39.81,0-52.695-53.859-17.256-71.976c10.84-5.521,23.664-5.525,34.513,0C308.737,428.151,295.737,481.988,256.001,481.988z
			 M314.162,408.572c-9.353-15.316-24.589-26.669-42.536-30.891c-4.287-23.206,13.653-44.886,37.444-44.886
			C356.315,332.794,360.742,402.329,314.162,408.572z M363.53,330.054c-9.093-12.104-22.128-21.098-37.174-25.039
			c-10.639-29.428,16.84-58.333,46.617-49.478C414.155,267.796,406.319,328.497,363.53,330.054z"/>
	</g>
</g>
<g>
</g>
<g>
</g>
<g>
</g>
<g>
</g>
<g>
</g>
<g>
</g>
<g>
</g>
<g>
</g>
<g>
</g>
<g>
</g>
<g>
</g>
<g>
</g>
<g>
</g>
<g>
</g>
<g>
</g>
</svg>
