<?xml version="1.0" encoding="iso-8859-1"?>
<!-- Generator: Adobe Illustrator 19.0.0, SVG Export Plug-In . SVG Version: 6.00 Build 0)  -->
<svg version="1.1" id="Capa_1" xmlns="http://www.w3.org/2000/svg" xmlns:xlink="http://www.w3.org/1999/xlink" x="0px" y="0px"
	 viewBox="0 0 470 470" style="enable-background:new 0 0 470 470;" xml:space="preserve">
<g>
	<path d="M432.5,216.049c-4.143,0-7.5-3.357-7.5-7.5c0-48.469-18.321-85.037-54.454-108.691
		C338.177,78.668,292.572,67.924,235,67.924S131.823,78.668,99.454,99.857C63.321,123.512,45,160.08,45,208.549
		c0,4.143-3.358,7.5-7.5,7.5s-7.5-3.357-7.5-7.5c0-100.356,72.804-155.625,205-155.625s205,55.269,205,155.625
		C440,212.691,436.643,216.049,432.5,216.049z"/>
	<path d="M108,134.697c-4.135,0-7.5,3.365-7.5,7.5s3.365,7.5,7.5,7.5s7.5-3.365,7.5-7.5S112.135,134.697,108,134.697z"/>
	<path d="M354.5,142.197c0,4.135,3.365,7.5,7.5,7.5s7.5-3.365,7.5-7.5s-3.365-7.5-7.5-7.5S354.5,138.062,354.5,142.197z"/>
	<path d="M332,356.697c4.135,0,7.5,3.365,7.5,7.5s-3.365,7.5-7.5,7.5s-7.5-3.365-7.5-7.5S327.865,356.697,332,356.697z"/>
	<path d="M138,155.697c-4.135,0-7.5,3.365-7.5,7.5s3.365,7.5,7.5,7.5s7.5-3.365,7.5-7.5S142.135,155.697,138,155.697z"/>
	<path d="M372.5,417.076h-275c-37.22,0-67.5-30.28-67.5-67.5c0-4.143,3.358-7.5,7.5-7.5s7.5,3.357,7.5,7.5
		c0,28.948,23.551,52.5,52.5,52.5h275c28.948,0,52.5-23.552,52.5-52.5c0-4.143,3.357-7.5,7.5-7.5s7.5,3.357,7.5,7.5
		C440,386.796,409.72,417.076,372.5,417.076z"/>
	<path d="M432.5,291.049h-395c-20.678,0-37.5-16.822-37.5-37.5v-15c0-20.678,16.822-37.5,37.5-37.5h395
		c20.678,0,37.5,16.822,37.5,37.5v15C470,274.227,453.178,291.049,432.5,291.049z M37.5,216.049c-12.407,0-22.5,10.094-22.5,22.5v15
		c0,12.406,10.093,22.5,22.5,22.5h395c12.406,0,22.5-10.094,22.5-22.5v-15c0-12.406-10.094-22.5-22.5-22.5H37.5z"/>
	<path d="M386.663,341.049c-20.815,0-31.761-5.772-41.417-10.866c-9.292-4.901-17.316-9.134-34.419-9.134
		c-17.102,0-25.126,4.232-34.418,9.134c-9.656,5.094-20.601,10.866-41.416,10.866c-20.814,0-31.758-5.772-41.414-10.866
		c-9.292-4.901-17.315-9.134-34.417-9.134s-25.125,4.232-34.417,9.134c-9.656,5.094-20.6,10.866-41.415,10.866
		c-20.814,0-31.759-5.772-41.415-10.866c-9.292-4.901-17.315-9.134-34.417-9.134c-4.142,0-7.5-3.357-7.5-7.5s3.358-7.5,7.5-7.5
		c20.814,0,31.759,5.772,41.415,10.866c9.292,4.901,17.315,9.134,34.417,9.134s25.125-4.232,34.417-9.134
		c9.656-5.094,20.6-10.866,41.415-10.866c20.814,0,31.759,5.773,41.415,10.866c9.292,4.901,17.315,9.134,34.416,9.134
		c17.101,0,25.125-4.232,34.417-9.134c9.656-5.094,20.601-10.866,41.416-10.866s31.761,5.772,41.417,10.866
		c9.292,4.901,17.316,9.134,34.419,9.134s25.128-4.232,34.42-9.134c9.656-5.094,20.602-10.866,41.417-10.866
		c4.143,0,7.5,3.357,7.5,7.5s-3.357,7.5-7.5,7.5c-17.103,0-25.127,4.232-34.419,9.134
		C418.425,335.276,407.479,341.049,386.663,341.049z"/>
</g>
<g>
</g>
<g>
</g>
<g>
</g>
<g>
</g>
<g>
</g>
<g>
</g>
<g>
</g>
<g>
</g>
<g>
</g>
<g>
</g>
<g>
</g>
<g>
</g>
<g>
</g>
<g>
</g>
<g>
</g>
</svg>
