<?xml version="1.0" encoding="iso-8859-1"?>
<!-- Generator: Adobe Illustrator 19.0.0, SVG Export Plug-In . SVG Version: 6.00 Build 0)  -->
<svg version="1.1" id="Capa_1" xmlns="http://www.w3.org/2000/svg" xmlns:xlink="http://www.w3.org/1999/xlink" x="0px" y="0px"
	 viewBox="0 0 511 511" style="enable-background:new 0 0 511 511;" xml:space="preserve">
<path d="M487.5,0H324.29c-11.061,0-20.487,7.535-22.923,18.324l-52.705,233.408l-18.232,18.232l-5.652-5.652l-22.623-40.723
	c-2.384-4.291-6.54-7.142-11.4-7.822c-4.859-0.681-9.639,0.919-13.109,4.39l-30.256,30.256c-3.471,3.471-5.071,8.249-4.39,13.11
	c0.681,4.861,3.533,9.016,7.823,11.399l40.723,22.624l5.536,5.536C178.143,320.264,157.564,328,103.5,328
	c-33.889,0-61.25,17.803-79.125,51.484C8.429,409.53,0,452.415,0,503.5c0,4.142,3.358,7.5,7.5,7.5s7.5-3.358,7.5-7.5
	c0-48.643,7.824-89.095,22.625-116.984C52.949,357.641,75.113,343,103.5,343c53.812,0,79.637-6.988,104.186-29.313l5,5
	l22.624,40.723c2.383,4.291,6.539,7.142,11.399,7.823c0.735,0.103,1.469,0.154,2.196,0.154c4.081,0,7.968-1.598,10.914-4.544
	l30.256-30.256c3.471-3.471,5.071-8.249,4.39-13.11c-0.681-4.861-3.532-9.016-7.823-11.399l-40.723-22.624l-4.884-4.884
	l18.232-18.232l233.408-52.705C503.465,207.197,511,197.771,511,186.71V23.5C511,10.542,500.458,0,487.5,0z M206.711,291.5
	l12.021-12.021l12.021,12.021l-12.021,12.021L206.711,291.5z M157.854,261.442c-0.035-0.247,0.084-0.366,0.142-0.423l30.256-30.256
	c0.05-0.05,0.148-0.148,0.337-0.148c0.027,0,0.055,0.002,0.086,0.006c0.247,0.035,0.329,0.182,0.368,0.252l20.386,36.695
	l-14.627,14.627l-36.695-20.386C158.036,261.771,157.889,261.689,157.854,261.442z M279.611,321.558
	c0.034,0.247-0.084,0.366-0.142,0.423l-30.256,30.256c-0.058,0.057-0.18,0.178-0.423,0.142c-0.247-0.035-0.329-0.182-0.368-0.252
	l-20.386-36.695l14.627-14.627l36.695,20.386C279.429,321.229,279.576,321.311,279.611,321.558z M418.106,103.5L496,25.606v155.787
	L418.106,103.5z M488.575,195.181l-209.443,47.294L407.5,114.106L488.575,195.181z M407.5,92.894L329.606,15h155.787L407.5,92.894z
	 M315.819,22.425l81.075,81.075L268.525,231.868L315.819,22.425z"/>
<g>
</g>
<g>
</g>
<g>
</g>
<g>
</g>
<g>
</g>
<g>
</g>
<g>
</g>
<g>
</g>
<g>
</g>
<g>
</g>
<g>
</g>
<g>
</g>
<g>
</g>
<g>
</g>
<g>
</g>
</svg>
