<?xml version="1.0" encoding="iso-8859-1"?>
<!-- Generator: Adobe Illustrator 19.0.0, SVG Export Plug-In . SVG Version: 6.00 Build 0)  -->
<svg version="1.1" id="Capa_1" xmlns="http://www.w3.org/2000/svg" xmlns:xlink="http://www.w3.org/1999/xlink" x="0px" y="0px"
	 viewBox="0 0 512 512" style="enable-background:new 0 0 512 512;" xml:space="preserve">
<g>
	<g>
		<circle cx="315.877" cy="168.529" r="14.996"/>
	</g>
</g>
<g>
	<g>
		<circle cx="195.913" cy="168.529" r="14.996"/>
	</g>
</g>
<g>
	<g>
		<path d="M396.697,149.603L396.697,149.603L396.697,149.603c-1.931-5.798-4.296-11.51-7.03-16.977
			c-9.612-19.226-27.042-33.418-47.817-38.936c-20.776-5.517-42.951-1.843-60.835,10.081c-15.261,10.173-34.981,10.173-50.24,0
			c-37.512-25.009-88.505-11.443-108.653,28.854c-20.656,41.312-17.572,90.848,8.049,129.278l20.755,31.133v29.394
			c0,16.622,9.103,31.821,23.76,39.664c2.392,1.281,4.869,2.319,7.393,3.137c5.933,32.687,34.601,57.736,69.823,57.736h7.988
			c35.307,0,63.915-25.141,69.825-57.753c2.522-0.818,5-1.841,7.391-3.121c14.655-7.844,23.759-23.041,23.759-39.664v-29.405
			l20.755-31.122C403.853,228.554,409.349,187.621,396.697,149.603z M259.889,392.978h-7.988c-18.485,0-34.144-12.153-39.24-28.795
			c2.841-1.143,5.593-2.578,8.206-4.319l35.029-23.352l35.028,23.352c2.612,1.742,5.363,3.182,8.205,4.325
			C294.029,380.827,278.371,392.978,259.889,392.978z M241.865,253.26c2.133-5.685,7.609-9.75,14.03-9.75
			c6.421,0,11.896,4.065,14.03,9.75l-14.03,14.03L241.865,253.26z M356.666,245.267l-23.273,34.899
			c-1.643,2.463-2.52,5.358-2.52,8.32v33.947c0,8.108-5.538,11.948-7.919,13.221c-1.318,0.705-3.829,1.774-6.95,1.831
			c-0.043,0-0.084-0.006-0.127-0.006c-0.057,0-0.112,0.008-0.169,0.009c-2.449-0.007-5.254-0.647-8.15-2.577l-36.669-24.446V294.71
			l25.596-25.596c2.665-2.663,4.397-6.508,4.395-10.617c-0.006-24.801-20.184-44.976-44.987-44.976
			c-24.806,0-44.987,20.181-44.987,44.987c0,0.015,0.002,0.03,0.002,0.044c0.012,4.077,1.726,7.898,4.393,10.561l25.596,25.596
			v15.755L204.23,334.91c-2.895,1.93-5.698,2.57-8.148,2.577c-0.057-0.001-0.113-0.009-0.171-0.009
			c-0.044,0-0.086,0.006-0.129,0.007c-3.119-0.057-5.629-1.127-6.946-1.831c-2.381-1.275-7.92-5.115-7.92-13.222v-33.934
			c0-2.96-0.876-5.854-2.518-8.318l-23.273-34.911c-19.665-29.497-22.032-67.52-6.178-99.23
			c12.102-24.205,42.718-32.294,65.191-17.313c25.365,16.911,58.147,16.912,83.512,0c10.732-7.154,24.037-9.358,36.501-6.048
			c12.465,3.311,22.923,11.826,28.691,23.362C378.272,176.884,377.15,214.54,356.666,245.267z"/>
	</g>
</g>
<g>
	<g>
		<path d="M442.39,71.275c-6.499-5.04-13.021-9.24-19.361-12.742l12.582-2.875c6.227-1.424,10.87-6.637,11.565-12.988
			c0.694-6.351-2.711-12.445-8.484-15.182C350.38-14.366,290.415-2.274,255.983,23.721C221.54-2.282,161.631-14.387,73.275,27.488
			c-5.773,2.736-9.179,8.83-8.484,15.182c0.695,6.351,5.336,11.565,11.566,12.988l12.59,2.877
			c-6.336,3.501-12.859,7.704-19.355,12.741C14.498,114.002-1.269,185.913,0.078,255.31c0.121,6.2,4.045,11.687,9.873,13.804
			c5.829,2.118,12.358,0.429,16.43-4.249c0.047-0.054,4.825-5.467,11.292-10.241c-1.762,13.843-3.001,32.683-1.274,54.012
			c4.728,58.38,29.566,107.782,71.833,142.866c4.026,3.342,9.501,4.344,14.449,2.644c4.948-1.7,8.651-5.854,9.775-10.964
			l1.483-6.748c0.439,0.707,0.887,1.415,1.347,2.125c16.436,25.434,50.163,58.754,117.493,73.056
			c1.028,0.219,2.071,0.328,3.116,0.328s2.088-0.109,3.116-0.328c67.322-14.302,101.094-47.614,117.57-73.041
			c0.485-0.749,0.96-1.497,1.422-2.24l1.505,6.847c1.123,5.109,4.828,9.264,9.775,10.964c4.948,1.7,10.424,0.697,14.448-2.644
			c42.267-35.084,67.107-84.486,71.834-142.866c1.728-21.334,0.487-40.178-1.274-54.023c3.932,2.858,7.989,6.457,11.335,10.26
			c4.073,4.673,10.604,6.356,16.428,4.239c5.826-2.118,9.748-7.603,9.868-13.802C513.266,186.086,497.58,114.064,442.39,71.275z
			 M450.497,220.223c-7.465,2.574-11.654,10.497-9.579,18.116c0.293,1.078,26.207,100.092-37.867,172.248l-6.747-30.7
			c-1.607-7.313-8.356-12.312-15.827-11.731c-7.465,0.59-13.35,6.596-13.789,14.071c-0.044,0.761-5.65,75.603-110.795,99.369
			c-43.637-9.847-75.437-29.344-94.542-57.981c-14.201-21.285-15.986-40.342-16.076-41.413c-0.35-7.5-6.191-13.488-13.677-14.138
			c-7.516-0.654-14.322,4.466-15.938,11.822l-6.759,30.753c-24.734-27.681-39.013-62.367-42.526-103.443
			c-3.298-38.564,4.601-68.586,4.674-68.858c2.074-7.619-2.114-15.541-9.58-18.116c-10.725-3.7-21.448-1.208-30.734,3.437
			c3.855-58.257,22.633-101.135,56.004-127.717c28.913-23.031,58.999-24.916,59.225-24.929c7.498-0.331,13.596-6.154,14.273-13.629
			c0.677-7.475-4.277-14.299-11.594-15.971l-17.64-4.032c70.566-20.055,104.433,6.574,114.206,16.671
			c2.825,2.918,6.713,4.566,10.774,4.566s7.949-1.648,10.774-4.566c9.773-10.096,43.637-36.725,114.202-16.669l-17.639,4.032
			c-7.316,1.672-12.269,8.496-11.593,15.971s6.775,13.298,14.273,13.629c0.287,0.013,29.539,1.886,58.012,23.962
			c33.609,26.058,53.125,70.192,57.194,128.668C471.922,219.012,461.204,216.53,450.497,220.223z"/>
	</g>
</g>
<g>
</g>
<g>
</g>
<g>
</g>
<g>
</g>
<g>
</g>
<g>
</g>
<g>
</g>
<g>
</g>
<g>
</g>
<g>
</g>
<g>
</g>
<g>
</g>
<g>
</g>
<g>
</g>
<g>
</g>
</svg>
