<?xml version="1.0" encoding="iso-8859-1"?>
<!-- Generator: Adobe Illustrator 19.0.0, SVG Export Plug-In . SVG Version: 6.00 Build 0)  -->
<svg version="1.1" id="Capa_1" xmlns="http://www.w3.org/2000/svg" xmlns:xlink="http://www.w3.org/1999/xlink" x="0px" y="0px"
	 viewBox="0 0 512 512" style="enable-background:new 0 0 512 512;" xml:space="preserve">
<g>
	<g>
		<path d="M387.074,258.183C379.926,251.884,376,243.637,376,234.965v-20.596c0-30.601-25.034-60.059-53.525-63.032
			c-16.54-1.736-33.759,3.386-46.816,15.249c-5.405,4.907-12.393,7.603-19.658,7.603c-7.251,0-14.224-2.681-19.673-7.603
			c-13.162-11.977-30.374-17.08-46.758-15.234c-28.536,2.959-53.57,32.417-53.57,63.017v20.596c0,8.643-3.911,16.875-11.03,23.203
			C93.388,286.103,76,322.621,76,361c0,82.705,80.742,151,180,151s180-68.295,180-151C436,322.621,418.612,286.103,387.074,258.183z
			 M316,211c8.284,0,15,6.714,15,15c0,8.284-6.716,15-15,15s-15-6.716-15-15C301,217.714,307.716,211,316,211z M275.395,335.395
			l15-15c5.859-5.859,15.352-5.859,21.211,0s5.859,15.352,0,21.211l-15,15c-5.859,5.859-15.352,5.859-21.211,0
			S269.535,341.254,275.395,335.395z M236.605,335.395c5.859,5.859,5.859,15.352,0,21.211c-5.859,5.859-15.352,5.859-21.211,0
			l-15-15c-5.859-5.859-5.859-15.352,0-21.211c5.859-5.859,15.352-5.859,21.211,0L236.605,335.395z M196,211c8.284,0,15,6.714,15,15
			c0,8.284-6.716,15-15,15s-15-6.716-15-15C181,217.714,187.716,211,196,211z M256,451c-73.184,0-135-48.091-135-105
			c0-8.291,6.709-15,15-15s15,6.709,15,15c0,39.946,49.072,75,105,75c55.928,0,105-35.054,105-75c0-8.291,6.709-15,15-15
			c8.291,0,15,6.709,15,15C391,402.909,329.184,451,256,451z"/>
	</g>
</g>
<g>
	<g>
		<path d="M256,0C156.742,0,76,81.742,76,181v87.426c8.19-11.686,17.789-22.729,29.092-32.728L106,214.369
			c0-45.806,36.855-88.33,80.479-92.856c24.234-2.758,50.224,4.856,70.034,22.881c17.595-17.049,43.006-25.565,69.097-22.896
			c43.564,4.556,80.391,47.08,80.391,92.871v20.596c11.729,10.353,21.611,21.698,29.999,33.662V181C436,81.742,355.258,0,256,0z"/>
	</g>
</g>
<g>
	<g>
		<path d="M0,256c0,34.841,20.193,63.953,46,72.338V183.662C20.193,192.047,0,221.159,0,256z"/>
	</g>
</g>
<g>
	<g>
		<path d="M466,183.662v144.675c25.807-8.384,46-37.496,46-72.338C512,221.157,491.807,192.047,466,183.662z"/>
	</g>
</g>
<g>
</g>
<g>
</g>
<g>
</g>
<g>
</g>
<g>
</g>
<g>
</g>
<g>
</g>
<g>
</g>
<g>
</g>
<g>
</g>
<g>
</g>
<g>
</g>
<g>
</g>
<g>
</g>
<g>
</g>
</svg>
