<?xml version="1.0" encoding="utf-8"?>
<!-- Generator: Adobe Illustrator 15.0.1, SVG Export Plug-In . SVG Version: 6.00 Build 0)  -->
<!DOCTYPE svg PUBLIC "-//W3C//DTD SVG 1.1//EN" "http://www.w3.org/Graphics/SVG/1.1/DTD/svg11.dtd">
<svg version="1.1" id="Capa_1" xmlns="http://www.w3.org/2000/svg" xmlns:xlink="http://www.w3.org/1999/xlink" x="0px" y="0px"
	 width="189.225px" height="189.225px" viewBox="0 0 189.225 189.225" enable-background="new 0 0 189.225 189.225"
	 xml:space="preserve">
<g>
	<path d="M173.908,82.154c-4.409-0.395-8.996,1.058-13.332,1.838c-0.693,0.125-1.394,0.236-2.09,0.355
		c1.469-13.088-0.542-26.854-6.872-39.57c-1.712-3.439-7.319-1.188-6.472,2.364c-5.48,4-9.89,8.542-13.973,13.826
		c-20.484-8.441-43.551-4.053-65.225-2.272c-11.859,0.975-18.385-17.733-29.412-21.652c0.003,0.022,0.006,0.047,0.009,0.069
		c-1.577-0.294-3.465,0.718-3.2,2.553c-7.889,17.351-8.904,35.243-4.484,51.146c-4.548,0.236-9.106,0.711-13.594,0.781
		c-2.91,0.045-4.066,4.012-1.49,5.502c3.356,1.939,6.606,1.279,10.274,0.709c2.242-0.351,4.476-0.742,6.711-1.125
		c0.825,2.201,1.743,4.36,2.781,6.459c-0.938,0.342-1.873,0.678-2.814,1.02c-3.939,1.428-8.19,2.704-11.726,4.986
		c-2.439,1.576-1.74,6.197,1.597,5.896c5.508-0.498,11.046-3.059,16.224-5.936c1.728,2.771,3.649,5.418,5.76,7.925
		c-0.729,0.411-1.455,0.827-2.192,1.214c-3.923,2.056-7.999,3.732-11.896,5.84c-2.998,1.621-0.834,5.771,2.193,5.204
		c5.476-1.023,11.148-3.993,16.191-7.579c10.783,10.636,25.347,17.982,42.657,20.036c23.061,2.731,41.808-6.373,54.001-21.185
		c1.036,0.387,2.063,0.795,3.103,1.179c4.104,1.521,8.15,3.593,12.605,3.477c2.092-0.056,3.852-3.035,1.89-4.562
		c-3.353-2.604-7.053-3.324-11.122-4.339c-0.925-0.229-1.847-0.469-2.771-0.696c1.945-2.89,3.64-5.961,5.127-9.146
		c3.741,1.024,7.457,2.213,11.453,2.816c2.97,0.447,5.274-3.572,2.193-5.204c-3.298-1.747-7.162-2.933-11.165-3.63
		c1.171-3.277,2.022-6.681,2.708-10.132c0.562-0.055,1.127-0.115,1.688-0.164c5.02-0.44,10.757-0.164,15.478-1.997
		C177.972,86.9,177.429,82.471,173.908,82.154z"/>
</g>
</svg>
