<?xml version="1.0" encoding="iso-8859-1"?>
<!-- Generator: Adobe Illustrator 19.0.0, SVG Export Plug-In . SVG Version: 6.00 Build 0)  -->
<svg version="1.1" id="Layer_1" xmlns="http://www.w3.org/2000/svg" xmlns:xlink="http://www.w3.org/1999/xlink" x="0px" y="0px"
	 viewBox="0 0 512 512" style="enable-background:new 0 0 512 512;" xml:space="preserve">
<g>
	<g>
		<g>
			<path d="M510.273,52.859l-1.615-12.456l-12.415-1.899c-3.87-0.591-91.409-13.354-154.661,28.866
				c-27.381-13.385-56.17-20.181-85.582-20.181s-58.201,6.796-85.582,20.181C107.167,25.147,19.624,37.913,15.757,38.504
				L3.341,40.403L1.727,52.859c-0.589,4.543-13.733,111.705,42.885,170.958c-5.274,19.646-8.035,39.756-8.035,59.711
				c0,57.803,22.645,106.929,65.485,142.063c39.445,32.35,94.115,50.167,153.938,50.167c59.824,0,114.493-17.817,153.938-50.167
				c42.841-35.135,65.486-84.26,65.486-142.063c0-19.955-2.761-40.067-8.035-59.713C524.004,164.563,510.862,57.402,510.273,52.859z
				 M307.781,169.606c11.386,0,20.633,9.309,20.633,20.795c0,11.484-9.247,20.794-20.633,20.794c-11.4,0-20.647-9.31-20.647-20.794
				C287.134,178.915,296.381,169.606,307.781,169.606z M204.068,169.766c11.306,0,20.491,9.232,20.491,20.634
				c0,11.399-9.187,20.639-20.491,20.639c-11.29,0-20.479-9.241-20.479-20.639C183.589,178.998,192.777,169.766,204.068,169.766z
				 M256.001,405.7c-49.426,0-89.637-31.597-89.637-70.433s40.21-70.433,89.637-70.433c49.426,0,89.637,31.597,89.637,70.433
				S305.428,405.7,256.001,405.7z"/>
			<path d="M231.02,322.88c-6.779,0-12.294,5.542-12.294,12.387c0,6.843,5.516,12.391,12.294,12.391
				c6.787,0,12.302-5.548,12.302-12.391C243.321,328.423,237.806,322.88,231.02,322.88z"/>
			<path d="M280.891,322.783c-6.844,0-12.395,5.589-12.395,12.484s5.552,12.483,12.395,12.483c6.835,0,12.387-5.589,12.387-12.483
				S287.726,322.783,280.891,322.783z"/>
		</g>
	</g>
</g>
<g>
</g>
<g>
</g>
<g>
</g>
<g>
</g>
<g>
</g>
<g>
</g>
<g>
</g>
<g>
</g>
<g>
</g>
<g>
</g>
<g>
</g>
<g>
</g>
<g>
</g>
<g>
</g>
<g>
</g>
</svg>
